<svg width="135" height="36" viewBox="0 0 135 36" xmlns="http://www.w3.org/2000/svg" xmlns:xlink="http://www.w3.org/1999/xlink"><title>Slice 1</title><defs><path d="M15 35.866c-.43 0-.858-.117-1.242-.351l-12.516-7.624c-.768-.468-1.241-1.333-1.241-2.269v-15.246c0-.935.473-1.8 1.242-2.268l12.516-7.623c.769-.468 1.715-.468 2.484 0l12.516 7.623c.768.468 1.242 1.333 1.242 2.268v15.246c0 .936-.473 1.802-1.242 2.269l-12.516 7.624c-.384.234-.813.351-1.242.351zm0-8.174l7.875-4.847v-9.692l-7.875-4.846-7.875 4.846v9.692zm0 0" id="a" fill-rule="evenodd"/><mask id="b"><use xlink:href="#a" fill="#fff"/></mask></defs><g fill="#D8D8D8" fill-rule="evenodd"><path d="M38.529 10.795h9.2v2.962h-6.178v2.962h5.714v2.963h-5.714v5.677h-3.021v-14.564zm0 0M60.884 22.13c-.246.727-.61 1.358-1.094 1.893-.484.535-1.087.954-1.811 1.255-.724.301-1.556.452-2.498.452-.955 0-1.795-.15-2.519-.452-.722-.301-1.326-.72-1.811-1.255-.484-.535-.848-1.166-1.094-1.893-.246-.727-.367-1.522-.367-2.386v-8.948h3.021v8.825c0 .453.068.872.203 1.255.136.384.324.717.571.998.246.281.539.501.881.659.342.157.714.236 1.114.236.4 0 .768-.079 1.103-.236.336-.158.627-.378.872-.659.246-.281.437-.614.572-.998.136-.383.204-.802.204-1.255v-8.825h3.021v8.948c0 .864-.122 1.659-.369 2.386zm0 0M64.042 10.795h4.106l5.829 10.121h.039v-10.121h3.022v14.564h-3.952l-5.985-10.367h-.038v10.367h-3.021v-14.564zm0 0M79.987 10.795h4.531c1.097 0 2.14.131 3.128.39.987.261 1.849.682 2.585 1.266.736.583 1.321 1.34 1.753 2.272.433.933.649 2.064.649 3.394 0 1.18-.21 2.219-.631 3.117-.419.899-.983 1.653-1.694 2.263-.71.61-1.531 1.073-2.459 1.388-.93.316-1.906.473-2.925.473h-4.938v-14.564zm3.021 11.602h1.569c.696 0 1.345-.076 1.946-.226.601-.15 1.121-.402 1.559-.751.44-.349.785-.809 1.037-1.379.251-.569.376-1.265.376-2.087 0-.713-.126-1.334-.376-1.862-.252-.528-.591-.964-1.018-1.307-.426-.342-.925-.6-1.501-.772-.575-.171-1.179-.257-1.811-.257h-1.781v8.64zm0 0M94.605 10.795h5.113c.593 0 1.19.045 1.791.134.601.09 1.139.267 1.617.535.478.267.865.641 1.163 1.121.296.48.444 1.118.444 1.913 0 .823-.216 1.505-.648 2.046-.433.543-1.004.929-1.714 1.163v.041c.452.069.862.202 1.231.401.368.2.684.453.949.761.263.309.467.669.61 1.081.142.411.213.85.213 1.316 0 .767-.154 1.408-.465 1.923-.311.514-.711.929-1.201 1.244-.491.316-1.044.542-1.657.679-.614.137-1.223.206-1.83.206h-5.616v-14.564zm3.021 5.821h2.187c.234 0 .462-.027.687-.082.227-.054.43-.144.612-.268.18-.123.324-.288.436-.493.108-.206.163-.453.163-.741 0-.301-.061-.552-.183-.751-.123-.198-.28-.353-.474-.463-.194-.11-.414-.188-.659-.237-.246-.048-.483-.072-.717-.072h-2.052v3.106zm0 6.028h2.71c.231 0 .468-.028.706-.082.24-.055.455-.15.649-.288.194-.137.351-.316.474-.535.123-.219.184-.487.184-.803 0-.342-.081-.62-.242-.832-.161-.213-.364-.373-.61-.484-.245-.11-.509-.185-.795-.226-.283-.041-.548-.062-.792-.062h-2.286v3.312zm0 0M106.564 18.166c0-1.165.184-2.222.551-3.168.367-.946.881-1.751 1.541-2.416.658-.666 1.438-1.176 2.343-1.533.903-.357 1.891-.535 2.963-.535 1.071 0 2.059.179 2.963.535.903.356 1.684.867 2.343 1.533.659.665 1.171 1.47 1.54 2.416.367.947.552 2.003.552 3.168 0 1.166-.185 2.221-.552 3.168-.369.946-.881 1.752-1.54 2.416-.659.665-1.441 1.177-2.343 1.533-.905.357-1.892.535-2.963.535-1.072 0-2.06-.178-2.963-.535-.905-.356-1.685-.867-2.343-1.533-.659-.664-1.174-1.471-1.541-2.416-.367-.947-.551-2.002-.551-3.168zm3.137 0c0 .686.101 1.313.301 1.883.2.569.487 1.063.863 1.48.373.419.823.744 1.346.978.523.233 1.107.349 1.753.349.644 0 1.229-.116 1.752-.349.524-.234.971-.559 1.346-.978.374-.417.662-.911.862-1.48.201-.57.3-1.196.3-1.883 0-.671-.099-1.296-.3-1.872-.2-.576-.488-1.073-.862-1.492-.375-.418-.823-.744-1.346-.977-.523-.233-1.108-.349-1.752-.349-.646 0-1.23.116-1.753.349-.523.233-.973.559-1.346.977-.375.418-.662.916-.863 1.492-.2.576-.301 1.2-.301 1.872zm0 0M125.717 17.748l-4.531-6.953h3.795l2.925 5.102 2.808-5.102h3.66l-4.435 6.891 4.959 7.673h-3.797l-3.35-5.863-3.255 5.863h-3.582l4.802-7.611zm0 0" fill="#2C3E50"/><use xlink:href="#a" fill="#1ABC9C"/><path d="M32.724 29.032l-35.111-21.549 34.254-18.403.856 39.953zm0 0" opacity=".15" fill="#fff" mask="url(#b)"/></g></svg>